# xmcd
#
# Track frame offsets:
#	150
#	14127
#	27902
#	45207
#	59240
#	75373
#	92102
#	107807
#	125677
#	142987
#	158722
#	174652
#
# Disc length: 2572 seconds
#
# Revision: 0
# Processed by: cddbd v1.5.2PL0 Copyright (c) Steve Scherf et al.
# Submitted via: EZCDAudioConverter 1.0.2.1
#
DISCID=9c0a0a0c
DTITLE=Shane Morkin - Crazy 'bout you
DYEAR=2014
DGENRE=country
TTITLE0=Dusty road
TTITLE1=Crazy 'bout you
TTITLE2=The King in town
TTITLE3=Together we are strong
TTITLE4=One more time
TTITLE5=The only one
TTITLE6=First time in love
TTITLE7=Teach me to dance
TTITLE8=Waiting for you
TTITLE9=Ghost loose in town
TTITLE10=Darlin' 
TTITLE11=Sally
EXTD=
EXTT0=
EXTT1=
EXTT2=
EXTT3=
EXTT4=
EXTT5=
EXTT6=
EXTT7=
EXTT8=
EXTT9=
EXTT10=
EXTT11=
PLAYORDER=
